<svg width="32" height="32" viewBox="0 0 32 32" fill="none" xmlns="http://www.w3.org/2000/svg">
<mask id="mask0_2922_922" style="mask-type:alpha" maskUnits="userSpaceOnUse" x="0" y="0" width="32" height="32">
<rect width="32" height="32" fill="#D9D9D9" style="fill:#D9D9D9;fill:color(display-p3 0.8510 0.8510 0.8510);fill-opacity:1;"/>
</mask>
<g mask="url(#mask0_2922_922)">
<path d="M13.3333 29.3333V26.6667H30.6666V29.3333H13.3333ZM14.6666 25.3333C14.6666 23.5333 15.2333 21.9611 16.3666 20.6167C17.4999 19.2722 18.9333 18.4444 20.6666 18.1333V17.3C20.6666 16.9222 20.7944 16.6056 21.0499 16.35C21.3055 16.0944 21.6221 15.9667 21.9999 15.9667C22.3777 15.9667 22.6944 16.0944 22.9499 16.35C23.2055 16.6056 23.3333 16.9222 23.3333 17.3V18.1333C25.0444 18.4444 26.4721 19.2722 27.6166 20.6167C28.761 21.9611 29.3333 23.5333 29.3333 25.3333H14.6666ZM18.1666 22.6333H25.7666C25.3444 22.0333 24.8055 21.55 24.1499 21.1833C23.4944 20.8167 22.7777 20.6333 21.9999 20.6333C21.1999 20.6333 20.4666 20.8167 19.7999 21.1833C19.1333 21.55 18.5888 22.0333 18.1666 22.6333ZM1.33325 17.3333V2.66667H9.33325V4.6L18.6666 2L29.3333 5.33333V6.66667C29.3333 7.77778 28.9444 8.72222 28.1666 9.5C27.3888 10.2778 26.4444 10.6667 25.3333 10.6667H22.6666V11.4667C22.6666 12.0222 22.5055 12.5278 22.1833 12.9833C21.861 13.4389 21.4444 13.7667 20.9333 13.9667L11.9333 17.3333H1.33325ZM3.99992 14.6667H6.66659V5.33333H3.99992V14.6667ZM9.33325 14.6667H11.4666L19.1999 11.8333C19.4444 11.7444 19.6388 11.5944 19.7833 11.3833C19.9277 11.1722 19.9999 10.9333 19.9999 10.6667H17.6333L13.7333 11.9333L12.9333 9.4L17.0999 8H25.3333C25.5333 8 25.7833 7.92778 26.0833 7.78333C26.3833 7.63889 26.5333 7.46667 26.5333 7.26667L18.5999 4.8L9.33325 7.33333V14.6667Z" fill="white" style="fill:white;fill-opacity:1;"/>
</g>
</svg>
