<svg width="32" height="32" viewBox="0 0 32 32" fill="none" xmlns="http://www.w3.org/2000/svg">
<mask id="mask0_2922_911" style="mask-type:alpha" maskUnits="userSpaceOnUse" x="0" y="0" width="32" height="32">
<rect width="32" height="32" fill="#D9D9D9" style="fill:#D9D9D9;fill:color(display-p3 0.8510 0.8510 0.8510);fill-opacity:1;"/>
</mask>
<g mask="url(#mask0_2922_911)">
<path d="M6.66675 21.3333H9.33341C9.33341 20.6 9.0723 19.9722 8.55008 19.45C8.02786 18.9278 7.40008 18.6667 6.66675 18.6667V21.3333ZM11.4001 21.3333H13.3334C13.3334 19.4889 12.6834 17.9167 11.3834 16.6167C10.0834 15.3167 8.51119 14.6667 6.66675 14.6667V16.6C7.97786 16.6 9.09453 17.0611 10.0167 17.9833C10.939 18.9056 11.4001 20.0222 11.4001 21.3333ZM15.4001 21.3333H17.3334C17.3334 19.8667 17.0556 18.4833 16.5001 17.1833C15.9445 15.8833 15.1834 14.75 14.2167 13.7833C13.2501 12.8167 12.1167 12.0556 10.8167 11.5C9.51675 10.9444 8.13341 10.6667 6.66675 10.6667V12.6C9.08897 12.6 11.1501 13.45 12.8501 15.15C14.5501 16.85 15.4001 18.9111 15.4001 21.3333ZM10.6667 28V25.3333H5.33341C4.60008 25.3333 3.9723 25.0722 3.45008 24.55C2.92786 24.0278 2.66675 23.4 2.66675 22.6667V6.66667C2.66675 5.93333 2.92786 5.30556 3.45008 4.78333C3.9723 4.26111 4.60008 4 5.33341 4H26.6667C27.4001 4 28.0279 4.26111 28.5501 4.78333C29.0723 5.30556 29.3334 5.93333 29.3334 6.66667V22.6667C29.3334 23.4 29.0723 24.0278 28.5501 24.55C28.0279 25.0722 27.4001 25.3333 26.6667 25.3333H21.3334V28H10.6667ZM5.33341 22.6667H26.6667V6.66667H5.33341V22.6667Z" fill="white" style="fill:white;fill-opacity:1;"/>
</g>
</svg>
