<svg width="18" height="18" viewBox="0 0 18 18" fill="none" xmlns="http://www.w3.org/2000/svg">
<g clip-path="url(#clip0_2832_2909)">
<path d="M2.75 0C1.37109 0 0.25 1.12109 0.25 2.5V15C0.25 16.3789 1.37109 17.5 2.75 17.5H15.25C16.6289 17.5 17.75 16.3789 17.75 15V2.5C17.75 1.12109 16.6289 0 15.25 0H2.75ZM14.3555 3.28125L10.3008 7.91406L15.0703 14.2188H11.3359L8.41406 10.3945L5.06641 14.2188H3.21094L7.54688 9.26172L2.97266 3.28125H6.80078L9.44531 6.77734L12.5 3.28125H14.3555ZM12.8789 13.1094L6.24219 4.33203H5.13672L11.8477 13.1094H12.8789Z" fill="white" style="fill:white;fill-opacity:1;"/>
</g>
<defs>
<clipPath id="clip0_2832_2909">
<rect width="18" height="18" fill="white" style="fill:white;fill-opacity:1;"/>
</clipPath>
</defs>
</svg>
