<svg width="59" height="9" viewBox="0 0 59 9" fill="none" xmlns="http://www.w3.org/2000/svg">
<path d="M1.94 5.42252C2.18 6.00252 2.42 6.57252 2.66 7.15252C1.92 6.78252 1.18 6.42252 0.42 6.07252C0.28 6.13252 0.14 6.19252 0 6.26252C0.38 7.10252 0.76 7.93252 1.13 8.77252C1.29 8.70252 1.45 8.62252 1.62 8.55252C1.37 7.99252 1.12 7.42252 0.87 6.86252C1.62 7.21252 2.35 7.56252 3.08 7.93252C3.22 7.87252 3.35 7.82252 3.49 7.76252C3.14 6.91252 2.8 6.06252 2.45 5.21252C2.28 5.28252 2.11 5.35252 1.94 5.42252Z" fill="black" style="fill:black;fill-opacity:1;"/>
<path d="M6.1599 4.69252C6.0299 4.55252 5.8799 4.45252 5.6999 4.38252C5.5199 4.31252 5.3299 4.27252 5.1199 4.27252C4.9099 4.27252 4.6999 4.31252 4.4799 4.39252C4.2599 4.47252 4.0799 4.58252 3.9199 4.71252C3.7599 4.85252 3.6399 5.00252 3.5499 5.17252C3.4599 5.34252 3.4099 5.52252 3.3999 5.71252C3.3999 5.90252 3.4199 6.09252 3.4999 6.28252C3.5799 6.47252 3.6799 6.63252 3.8199 6.76252C3.9499 6.89252 4.1099 6.99252 4.2899 7.06252C4.4699 7.13252 4.6599 7.16252 4.8599 7.16252C5.0599 7.16252 5.2699 7.12252 5.4799 7.04252C5.6899 6.96252 5.8699 6.86252 6.0199 6.73252C6.1699 6.60252 6.2899 6.45252 6.3799 6.29252C6.4699 6.13252 6.5199 5.95252 6.5399 5.76252C6.5599 5.57252 6.5399 5.38252 6.4599 5.19252C6.3899 5.00252 6.2899 4.83252 6.1599 4.70252V4.69252ZM5.8999 6.11252C5.8399 6.22252 5.7699 6.32252 5.6699 6.41252C5.5699 6.50252 5.4499 6.57252 5.3199 6.62252C5.1799 6.67252 5.0499 6.70252 4.9199 6.70252C4.7899 6.70252 4.6599 6.67252 4.5499 6.63252C4.4299 6.58252 4.3299 6.51252 4.2399 6.42252C4.1499 6.33252 4.0799 6.22252 4.0299 6.09252C3.9799 5.96252 3.9499 5.83252 3.9599 5.70252C3.9599 5.57252 3.9999 5.45252 4.0499 5.33252C4.1099 5.21252 4.1899 5.11252 4.2899 5.02252C4.3899 4.93252 4.5099 4.86252 4.6499 4.81252C4.7899 4.76252 4.9299 4.73252 5.0599 4.73252C5.1899 4.73252 5.3199 4.76252 5.4399 4.81252C5.5599 4.86252 5.6599 4.93252 5.7499 5.03252C5.8399 5.12252 5.8999 5.24252 5.9499 5.37252C5.9999 5.50252 6.0199 5.63252 6.0099 5.76252C6.0099 5.89252 5.9699 6.01252 5.9099 6.12252L5.8999 6.11252Z" fill="black" style="fill:black;fill-opacity:1;"/>
<path d="M10.0199 3.10253C9.87991 2.99253 9.70991 2.92253 9.50991 2.89253C9.30991 2.87253 9.07991 2.89253 8.82991 2.97253C8.43991 3.09253 8.04991 3.21253 7.65991 3.33253C7.93991 4.20253 8.21991 5.08253 8.48991 5.95253C8.65991 5.90253 8.82991 5.84253 8.99991 5.79253C8.91991 5.54253 8.83991 5.28253 8.76991 5.03253C8.97991 4.97253 9.17991 4.90253 9.38991 4.84253C9.62991 4.77253 9.82991 4.67253 9.98991 4.54253C10.1399 4.41253 10.2499 4.27253 10.2999 4.10253C10.3499 3.93253 10.3599 3.75253 10.2999 3.56253C10.2499 3.37253 10.1499 3.21253 10.0099 3.10253H10.0199ZM9.71991 4.15253C9.62991 4.28253 9.46991 4.37253 9.24991 4.44253C9.04991 4.50253 8.84991 4.56253 8.64991 4.62253C8.53991 4.27253 8.42991 3.92253 8.32991 3.58253C8.52991 3.52253 8.73991 3.45253 8.93991 3.39253C9.16991 3.32253 9.35991 3.32253 9.49991 3.37253C9.63991 3.43253 9.73991 3.54253 9.78991 3.71253C9.83991 3.88253 9.81991 4.02253 9.72991 4.15253H9.71991Z" fill="black" style="fill:black;fill-opacity:1;"/>
<path d="M13.0601 1.85254C12.8901 1.89254 12.7101 1.93254 12.5401 1.97254C12.6601 2.47254 12.7801 2.96254 12.9001 3.46254C12.9701 3.74254 12.9501 3.95254 12.8601 4.10254C12.7701 4.25254 12.6101 4.36254 12.3901 4.42254C12.1701 4.48254 11.9801 4.46254 11.8201 4.37254C11.6601 4.28254 11.5501 4.10254 11.4801 3.82254C11.3501 3.33254 11.2201 2.83254 11.0901 2.34254C10.9101 2.39254 10.7401 2.43254 10.5601 2.48254C10.7001 2.98254 10.8301 3.48254 10.9701 3.98254C11.0801 4.37254 11.2601 4.63254 11.5301 4.78254C11.8001 4.93254 12.1201 4.95254 12.5001 4.86254C12.8701 4.77254 13.1401 4.59254 13.3101 4.33254C13.4801 4.07254 13.5101 3.75254 13.4201 3.36254C13.3001 2.86254 13.1901 2.35254 13.0701 1.85254H13.0601Z" fill="black" style="fill:black;fill-opacity:1;"/>
<path d="M16.0001 3.09254C16.1601 2.98254 16.2801 2.84254 16.3501 2.68254C16.4201 2.52254 16.4401 2.34254 16.4001 2.14254C16.3401 1.84254 16.1901 1.62254 15.9401 1.49254C15.6901 1.36254 15.3701 1.33254 14.9901 1.41254C14.6001 1.49254 14.2001 1.57254 13.8101 1.66254C14.0101 2.56254 14.2101 3.45254 14.4001 4.35254C14.5701 4.31254 14.7401 4.27254 14.9101 4.24254C14.8501 3.98254 14.8001 3.72254 14.7401 3.46254C14.9501 3.42254 15.1601 3.37254 15.3701 3.33254C15.4101 3.33254 15.4401 3.31254 15.4701 3.30254C15.7201 3.53254 15.9601 3.75254 16.2001 3.98254C16.3901 3.94254 16.5701 3.91254 16.7601 3.88254C16.4901 3.62254 16.2201 3.37254 15.9501 3.11254C15.9601 3.11254 15.9801 3.10254 15.9901 3.09254H16.0001ZM14.6601 3.06254C14.5801 2.70254 14.5101 2.34254 14.4301 1.99254C14.6401 1.95254 14.8401 1.90254 15.0501 1.86254C15.2901 1.81254 15.4701 1.82254 15.6101 1.89254C15.7501 1.96254 15.8301 2.08254 15.8601 2.25254C15.8901 2.42254 15.8601 2.56254 15.7601 2.68254C15.6601 2.80254 15.5001 2.88254 15.2701 2.93254C15.0701 2.97254 14.8601 3.02254 14.6601 3.06254Z" fill="black" style="fill:black;fill-opacity:1;"/>
<path d="M18.95 3.02258C18.83 3.09258 18.7 3.14258 18.55 3.16258C18.4 3.18258 18.27 3.18258 18.14 3.16258C18.01 3.13258 17.89 3.08258 17.79 3.01258C17.69 2.94258 17.6 2.85258 17.53 2.74258C17.46 2.63258 17.41 2.51258 17.39 2.37258C17.37 2.23258 17.37 2.10258 17.39 1.97258C17.42 1.85258 17.47 1.73258 17.55 1.63258C17.63 1.53258 17.72 1.45258 17.84 1.38258C17.96 1.31258 18.09 1.27258 18.24 1.24258C18.39 1.22258 18.54 1.22258 18.67 1.26258C18.81 1.29258 18.94 1.36258 19.06 1.45258C19.16 1.33258 19.26 1.21258 19.36 1.09258C19.2 0.962578 19.02 0.872578 18.81 0.822578C18.6 0.772578 18.38 0.772578 18.14 0.802578C17.92 0.832578 17.72 0.902579 17.54 1.00258C17.36 1.10258 17.22 1.22258 17.1 1.37258C16.98 1.52258 16.9 1.69258 16.85 1.87258C16.8 2.05258 16.8 2.25258 16.83 2.45258C16.87 2.65258 16.94 2.83258 17.04 2.99258C17.14 3.15258 17.28 3.28258 17.43 3.38258C17.59 3.48258 17.76 3.55258 17.95 3.59258C18.14 3.63258 18.35 3.63258 18.56 3.59258C18.79 3.55258 18.99 3.48258 19.17 3.38258C19.35 3.27258 19.49 3.14258 19.6 2.97258C19.47 2.88258 19.35 2.79258 19.22 2.71258C19.13 2.83258 19.03 2.93258 18.91 3.00258L18.95 3.02258Z" fill="black" style="fill:black;fill-opacity:1;"/>
<path d="M21.8501 0.382571C21.8901 0.762571 21.9301 1.13257 21.9701 1.51257C21.4701 1.56257 20.9801 1.62257 20.4901 1.68257C20.4401 1.30257 20.4001 0.932571 20.3501 0.552571C20.1701 0.572571 19.9901 0.602571 19.8101 0.622571C19.9301 1.53257 20.0501 2.44257 20.1701 3.35257C20.3401 3.33257 20.5201 3.30257 20.6901 3.28257C20.6401 2.89257 20.5901 2.50257 20.5401 2.11257C21.0301 2.05257 21.5201 1.99257 22.0101 1.94257C22.0501 2.33257 22.0901 2.72257 22.1301 3.11257C22.3001 3.09257 22.4801 3.08257 22.6501 3.06257C22.5601 2.15257 22.4801 1.23257 22.3901 0.322571C22.2101 0.342571 22.0301 0.352571 21.8501 0.372571V0.382571Z" fill="black" style="fill:black;fill-opacity:1;"/>
<path d="M24.08 0.192537C23.71 1.14254 23.35 2.09254 23.01 3.04254C23.19 3.02254 23.37 3.01254 23.55 2.99254C23.63 2.77254 23.71 2.55254 23.79 2.34254C24.26 2.30254 24.73 2.27254 25.2 2.25254C25.31 2.46254 25.42 2.66254 25.52 2.87254C25.7 2.87254 25.88 2.85254 26.07 2.84254C25.61 1.94254 25.12 1.05254 24.63 0.162537C24.45 0.172537 24.27 0.182537 24.1 0.202537L24.08 0.192537ZM23.94 1.92254C24.09 1.51254 24.23 1.10254 24.39 0.692537C24.6 1.08254 24.8 1.46254 25 1.85254C24.65 1.87254 24.3 1.89254 23.95 1.92254H23.94Z" fill="black" style="fill:black;fill-opacity:1;"/>
<path d="M28.08 1.41255C27.98 1.36255 27.87 1.31255 27.75 1.28255C27.63 1.25255 27.5 1.22255 27.38 1.20255C27.26 1.18255 27.14 1.15255 27.04 1.12255C26.94 1.09255 26.86 1.06255 26.79 1.01255C26.73 0.962548 26.69 0.892548 26.69 0.812548C26.69 0.742548 26.71 0.682548 26.75 0.622548C26.79 0.562548 26.86 0.522548 26.95 0.482548C27.04 0.442548 27.16 0.422548 27.31 0.422548C27.44 0.422548 27.57 0.432548 27.71 0.462548C27.85 0.492548 27.99 0.552548 28.12 0.622548C28.18 0.492548 28.23 0.352548 28.29 0.222548C28.16 0.142548 28.01 0.0825481 27.84 0.0525481C27.67 0.0125481 27.49 -0.00745164 27.32 0.00254836C27.05 0.00254836 26.83 0.0525485 26.66 0.132548C26.49 0.212548 26.36 0.322548 26.28 0.442548C26.2 0.572548 26.16 0.712548 26.17 0.862548C26.17 1.01255 26.21 1.13255 26.28 1.22255C26.35 1.31255 26.43 1.38255 26.53 1.44255C26.63 1.49255 26.74 1.53255 26.87 1.57255C26.99 1.60255 27.11 1.63255 27.24 1.65255C27.36 1.67255 27.47 1.70255 27.57 1.73255C27.67 1.76255 27.75 1.80255 27.82 1.85255C27.88 1.90255 27.92 1.97255 27.92 2.05255C27.92 2.12255 27.9 2.18255 27.86 2.23255C27.82 2.28255 27.75 2.33255 27.66 2.36255C27.57 2.39255 27.45 2.41255 27.3 2.42255C27.13 2.42255 26.95 2.40255 26.78 2.35255C26.61 2.30255 26.47 2.23255 26.35 2.15255C26.29 2.28255 26.24 2.42255 26.18 2.55255C26.3 2.64255 26.47 2.71255 26.67 2.77255C26.87 2.82255 27.09 2.85255 27.3 2.84255C27.56 2.84255 27.77 2.79255 27.94 2.71255C28.11 2.63255 28.23 2.53255 28.31 2.41255C28.39 2.28255 28.43 2.15255 28.43 2.00255C28.43 1.86255 28.4 1.74255 28.33 1.64255C28.27 1.55255 28.19 1.47255 28.09 1.42255L28.08 1.41255Z" fill="black" style="fill:black;fill-opacity:1;"/>
<path d="M31.0799 0.472573C31.0799 0.332573 31.08 0.182573 31.09 0.0425735C30.38 0.0225735 29.66 0.0125732 28.95 0.0125732C28.95 0.932573 28.95 1.84257 28.95 2.76257C29.65 2.76257 30.3599 2.76257 31.0599 2.79257C31.0599 2.65257 31.06 2.50257 31.07 2.36257C30.54 2.34257 30 2.33257 29.47 2.33257C29.47 2.08257 29.47 1.82257 29.47 1.57257C29.93 1.57257 30.3899 1.58257 30.8499 1.59257C30.8499 1.45257 30.85 1.31257 30.86 1.17257C30.4 1.16257 29.93 1.15257 29.47 1.15257C29.47 0.912574 29.47 0.672573 29.47 0.432573C30 0.432573 30.5299 0.442574 31.0599 0.462574L31.0799 0.472573Z" fill="black" style="fill:black;fill-opacity:1;"/>
<path d="M34.81 2.12255C34.34 1.45255 33.86 0.792549 33.35 0.142549C33.2 0.142549 33.05 0.122549 32.9 0.112549C32.85 1.03255 32.8 1.94255 32.75 2.86255C32.92 2.86255 33.1 2.88255 33.27 2.89255C33.31 2.27255 33.35 1.66255 33.39 1.04255C33.88 1.69255 34.36 2.34255 34.82 3.00255C34.96 3.01255 35.11 3.02255 35.25 3.04255C35.33 2.13255 35.42 1.21255 35.5 0.302549C35.32 0.282549 35.14 0.272549 34.96 0.252549C34.91 0.872549 34.86 1.49255 34.8 2.12255H34.81Z" fill="black" style="fill:black;fill-opacity:1;"/>
<path d="M36.01 3.12258C36.71 3.19258 37.41 3.28258 38.11 3.37258C38.13 3.23258 38.15 3.09258 38.17 2.95258C37.64 2.88258 37.11 2.81258 36.58 2.75258C36.61 2.50258 36.64 2.25258 36.66 2.00258C37.12 2.05258 37.58 2.11258 38.04 2.17258C38.06 2.03258 38.08 1.89258 38.09 1.75258C37.63 1.69258 37.17 1.63258 36.7 1.58258C36.73 1.34258 36.75 1.11258 36.78 0.872578C37.31 0.932578 37.83 0.992578 38.36 1.06258C38.38 0.922578 38.4 0.782578 38.42 0.642578C37.71 0.552578 37 0.462578 36.29 0.392578C36.2 1.30258 36.1 2.22258 36.01 3.13258V3.12258Z" fill="black" style="fill:black;fill-opacity:1;"/>
<path d="M39.61 1.49254C39.71 1.42254 39.83 1.37254 39.97 1.34254C40.1 1.31254 40.24 1.31254 40.4 1.34254C40.55 1.36254 40.69 1.41254 40.81 1.49254C40.93 1.56254 41.03 1.66254 41.12 1.79254C41.25 1.71254 41.39 1.63254 41.52 1.55254C41.41 1.38254 41.27 1.23254 41.09 1.12254C40.91 1.01254 40.7 0.942542 40.46 0.902542C40.24 0.862542 40.02 0.872542 39.83 0.902542C39.63 0.942542 39.45 1.01254 39.29 1.12254C39.13 1.23254 39 1.36254 38.9 1.52254C38.8 1.68254 38.73 1.86254 38.71 2.06254C38.68 2.26254 38.69 2.45254 38.74 2.64254C38.79 2.82254 38.87 2.99254 38.99 3.13254C39.11 3.28254 39.25 3.40254 39.42 3.49254C39.59 3.59254 39.78 3.65254 40 3.69254C40.23 3.73254 40.45 3.72254 40.65 3.68254C40.85 3.64254 41.03 3.55254 41.19 3.43254C41.1 3.31254 41 3.18254 40.91 3.06254C40.79 3.15254 40.66 3.21254 40.53 3.24254C40.4 3.27254 40.25 3.28254 40.11 3.25254C39.96 3.23254 39.83 3.18254 39.72 3.12254C39.61 3.05254 39.51 2.97254 39.43 2.87254C39.35 2.77254 39.3 2.66254 39.27 2.54254C39.24 2.42254 39.23 2.28254 39.25 2.14254C39.27 2.00254 39.31 1.88254 39.38 1.77254C39.45 1.66254 39.53 1.57254 39.64 1.50254L39.61 1.49254Z" fill="black" style="fill:black;fill-opacity:1;"/>
<path d="M43.66 3.14253C43.69 3.00253 43.72 2.87253 43.75 2.73253C43.29 2.63253 42.8401 2.54253 42.3801 2.45253C42.4301 2.22253 42.4701 1.98253 42.5201 1.75253C43.0401 1.85253 43.56 1.96253 44.08 2.07253C44.11 1.93253 44.14 1.79253 44.17 1.65253C43.47 1.50253 42.77 1.35253 42.06 1.22253C41.89 2.12253 41.72 3.02253 41.55 3.93253C42.25 4.06253 42.9401 4.20253 43.6301 4.35253C43.6601 4.21253 43.6901 4.07253 43.7201 3.93253C43.2001 3.81253 42.67 3.71253 42.15 3.60253C42.2 3.35253 42.25 3.10253 42.3 2.86253C42.75 2.95253 43.21 3.04253 43.66 3.14253Z" fill="black" style="fill:black;fill-opacity:1;"/>
<path d="M45.33 2.36255C45.43 2.35255 45.55 2.36256 45.7 2.40256C45.82 2.43256 45.95 2.48255 46.08 2.55255C46.21 2.62255 46.33 2.70255 46.43 2.81255C46.52 2.70255 46.61 2.58255 46.7 2.47255C46.59 2.36255 46.46 2.27255 46.3 2.18255C46.14 2.10255 45.98 2.03255 45.8 1.99255C45.54 1.93255 45.31 1.91255 45.12 1.94255C44.93 1.97255 44.78 2.04255 44.67 2.14255C44.56 2.24255 44.49 2.37255 44.45 2.51255C44.42 2.65255 44.42 2.78255 44.46 2.88256C44.5 2.99256 44.56 3.08255 44.65 3.16255C44.74 3.24255 44.83 3.31255 44.95 3.37255C45.06 3.43255 45.17 3.49256 45.28 3.55256C45.39 3.60256 45.49 3.66255 45.58 3.71255C45.67 3.76255 45.74 3.82256 45.79 3.89256C45.84 3.95256 45.85 4.03255 45.83 4.11255C45.81 4.18255 45.78 4.23255 45.72 4.27255C45.66 4.31255 45.59 4.34256 45.49 4.34256C45.39 4.34256 45.27 4.34256 45.13 4.30256C44.96 4.26256 44.8 4.19255 44.65 4.10255C44.5 4.01255 44.38 3.90255 44.28 3.79255C44.19 3.91255 44.1 4.02256 44.01 4.14256C44.1 4.26256 44.24 4.37255 44.43 4.48255C44.61 4.59255 44.81 4.67256 45.03 4.72256C45.28 4.78256 45.5 4.80255 45.68 4.77255C45.86 4.74255 46.01 4.67255 46.12 4.58255C46.23 4.48255 46.31 4.36256 46.34 4.22256C46.38 4.08256 46.38 3.96255 46.34 3.85255C46.3 3.74255 46.24 3.65255 46.16 3.57255C46.08 3.49255 45.98 3.42255 45.87 3.36255C45.76 3.30255 45.65 3.24256 45.53 3.18256C45.42 3.12256 45.31 3.07255 45.22 3.02255C45.13 2.97255 45.06 2.91255 45.01 2.85255C44.96 2.79255 44.95 2.71255 44.97 2.63256C44.99 2.56256 45.02 2.50255 45.08 2.46255C45.14 2.42255 45.21 2.39256 45.31 2.38256L45.33 2.36255Z" fill="black" style="fill:black;fill-opacity:1;"/>
<path d="M48.87 4.54255C48.84 4.43255 48.78 4.34255 48.7 4.26255C48.62 4.18255 48.52 4.10255 48.42 4.04255C48.31 3.97255 48.2 3.91255 48.09 3.85255C47.98 3.79255 47.88 3.73255 47.79 3.68255C47.7 3.62255 47.63 3.56255 47.58 3.50255C47.53 3.43255 47.52 3.36255 47.54 3.28255C47.56 3.21255 47.6 3.16255 47.65 3.12255C47.71 3.08255 47.78 3.05255 47.88 3.05255C47.98 3.05255 48.1 3.05255 48.25 3.10255C48.37 3.14255 48.5 3.19255 48.62 3.26255C48.74 3.33255 48.86 3.42255 48.97 3.53255C49.06 3.42255 49.16 3.31255 49.25 3.20255C49.15 3.09255 49.02 2.99255 48.86 2.90255C48.7 2.81255 48.54 2.74255 48.37 2.69255C48.11 2.62255 47.88 2.59255 47.7 2.62255C47.51 2.65255 47.36 2.71255 47.24 2.81255C47.13 2.91255 47.05 3.03255 47.01 3.17255C46.97 3.31255 46.97 3.44255 47.01 3.54255C47.05 3.65255 47.11 3.74255 47.19 3.82255C47.27 3.90255 47.37 3.97255 47.48 4.04255C47.59 4.11255 47.7 4.17255 47.81 4.23255C47.92 4.29255 48.02 4.35255 48.11 4.40255C48.2 4.46255 48.27 4.52255 48.31 4.59255C48.36 4.66255 48.37 4.73255 48.34 4.81255C48.32 4.88255 48.28 4.93255 48.23 4.97255C48.17 5.01255 48.1 5.03255 48 5.04255C47.9 5.04255 47.78 5.03255 47.64 4.99255C47.47 4.94255 47.31 4.87255 47.16 4.77255C47.01 4.67255 46.89 4.56255 46.81 4.45255C46.72 4.56255 46.62 4.67255 46.53 4.79255C46.62 4.91255 46.76 5.03255 46.94 5.15255C47.12 5.26255 47.32 5.35255 47.53 5.41255C47.78 5.48255 48 5.50255 48.18 5.48255C48.36 5.46255 48.52 5.40255 48.63 5.30255C48.75 5.20255 48.82 5.09255 48.87 4.95255C48.91 4.81255 48.92 4.69255 48.88 4.58255L48.87 4.54255Z" fill="black" style="fill:black;fill-opacity:1;"/>
<path d="M50.82 3.45257C50.11 4.19257 49.42 4.93257 48.75 5.68257C48.92 5.73257 49.1 5.79257 49.27 5.84257C49.42 5.67257 49.58 5.50257 49.74 5.32257C50.19 5.46257 50.64 5.61257 51.09 5.76257C51.11 5.99257 51.14 6.22257 51.16 6.46257C51.34 6.52257 51.51 6.58257 51.68 6.64257C51.58 5.63257 51.46 4.62257 51.33 3.61257C51.16 3.55257 50.99 3.50257 50.81 3.44257L50.82 3.45257ZM50.03 5.00257C50.32 4.67257 50.61 4.35257 50.91 4.03257C50.96 4.47257 51 4.90257 51.04 5.34257C50.7 5.23257 50.36 5.12257 50.03 5.01257V5.00257Z" fill="black" style="fill:black;fill-opacity:1;"/>
<path d="M54.11 4.61257C53.73 4.47257 53.35 4.32257 52.96 4.19257C52.65 5.05257 52.34 5.92257 52.03 6.78257C52.2 6.84257 52.36 6.90257 52.53 6.96257C52.62 6.71257 52.71 6.46257 52.81 6.21257C53.01 6.29257 53.22 6.36257 53.42 6.44257C53.46 6.45257 53.49 6.46257 53.52 6.47257C53.61 6.79257 53.7 7.12257 53.78 7.44257C53.96 7.51257 54.14 7.58257 54.31 7.65257C54.22 7.29257 54.12 6.93257 54.02 6.56257C54.04 6.56257 54.05 6.56257 54.07 6.56257C54.27 6.56257 54.44 6.50257 54.59 6.41257C54.74 6.31257 54.85 6.17257 54.92 5.98257C55.03 5.70257 55.02 5.43257 54.87 5.19257C54.72 4.95257 54.46 4.75257 54.09 4.61257H54.11ZM54.42 5.78257C54.36 5.94257 54.25 6.04257 54.1 6.09257C53.95 6.14257 53.77 6.12257 53.54 6.03257C53.34 5.96257 53.14 5.88257 52.95 5.81257C53.08 5.47257 53.2 5.12257 53.33 4.78257C53.53 4.85257 53.73 4.93257 53.93 5.00257C54.16 5.09257 54.31 5.20257 54.39 5.33257C54.47 5.46257 54.48 5.61257 54.41 5.77257L54.42 5.78257Z" fill="black" style="fill:black;fill-opacity:1;"/>
<path d="M58.0899 6.26256C57.9199 6.18256 57.7599 6.11256 57.5899 6.04256C57.1399 6.33256 56.6899 6.63256 56.2499 6.92256C56.1599 6.39256 56.0699 5.87256 55.9699 5.34256C55.7899 5.26256 55.5999 5.19256 55.4199 5.12256C55.5599 5.82256 55.6899 6.52256 55.8099 7.22256C55.6899 7.51256 55.5599 7.81256 55.4399 8.10256C55.5999 8.17256 55.7699 8.24256 55.9299 8.31256C56.0599 8.02256 56.1799 7.72256 56.3099 7.43256C56.8999 7.03256 57.4899 6.64256 58.0899 6.26256Z" fill="black" style="fill:black;fill-opacity:1;"/>
</svg>
