<svg width="200" height="36" viewBox="0 0 200 36" fill="none" xmlns="http://www.w3.org/2000/svg">
<path d="M1.58535 6.27142C2.6456 4.29306 4.14183 2.75982 6.08397 1.65194C8.0261 0.544051 10.2556 0 12.7823 0C15.9829 0 18.6781 0.850698 20.868 2.56199C23.0578 4.27327 24.4649 6.58796 25.0891 9.52584H17.4098C16.9441 8.55644 16.3099 7.81455 15.4974 7.31007C14.6848 6.80558 13.7435 6.5484 12.6733 6.5484C11.0186 6.5484 9.7106 7.13201 8.71972 8.30914C7.73874 9.48627 7.2433 11.0492 7.2433 13.0177C7.2433 14.9861 7.73874 16.5886 8.71972 17.7657C9.70069 18.9429 11.0186 19.5265 12.6733 19.5265C13.7435 19.5265 14.6848 19.2693 15.4974 18.7648C16.3099 18.2603 16.9441 17.5184 17.4098 16.549H25.0891C24.455 19.477 23.0479 21.8016 20.868 23.5129C18.688 25.2242 15.9928 26.0749 12.7823 26.0749C10.2556 26.0749 8.0261 25.5209 6.08397 24.4229C4.14183 23.3249 2.6456 21.7818 1.58535 19.8035C0.525107 17.8251 -6.10352e-05 15.5697 -6.10352e-05 13.0275C-6.10352e-05 10.4853 0.525107 8.25968 1.58535 6.28132V6.27142Z" fill="#FAAF00" style="fill:#FAAF00;fill:color(display-p3 0.9804 0.6863 0.0000);fill-opacity:1;"/>
<path d="M85.0177 7.62663C86.4843 9.17965 87.2175 11.2965 87.2175 13.9871V25.8771H80.0831V14.9367C80.0831 13.8486 79.776 12.9979 79.1715 12.3945C78.5671 11.7911 77.7348 11.4844 76.6943 11.4844C75.6539 11.4844 74.8216 11.7911 74.2171 12.3945C73.6127 12.9979 73.3055 13.8486 73.3055 14.9367V25.8771H66.1711V14.9367C66.1711 13.8486 65.8739 12.9979 65.2793 12.3945C64.6848 11.7911 63.8624 11.4844 62.8219 11.4844C61.7815 11.4844 60.9194 11.7911 60.3051 12.3945C59.7007 12.9979 59.3935 13.8486 59.3935 14.9367V25.8771H52.2591V5.48999H59.3935V8.18057C60.0277 7.31009 60.8402 6.60777 61.8509 6.09339C62.8616 5.56913 64.0209 5.31194 65.3289 5.31194C66.835 5.31194 68.1727 5.63837 69.3519 6.29123C70.531 6.94409 71.4525 7.86403 72.1363 9.05105C72.8695 7.93328 73.8208 7.03312 75.0098 6.34069C76.1989 5.64826 77.5068 5.30205 78.9436 5.30205C81.5199 5.30205 83.5413 6.07361 85.0078 7.62663H85.0177Z" fill="#FAAF00" style="fill:#FAAF00;fill:color(display-p3 0.9804 0.6863 0.0000);fill-opacity:1;"/>
<path d="M101.348 6.06358C102.368 5.50964 103.567 5.22278 104.954 5.22278C106.58 5.22278 108.056 5.64813 109.374 6.49883C110.702 7.34952 111.742 8.55633 112.505 10.139C113.268 11.7118 113.654 13.5616 113.654 15.6686C113.654 17.7755 113.268 19.6253 112.505 21.208C111.742 22.7907 110.702 24.0173 109.374 24.8581C108.046 25.7088 106.58 26.1341 104.954 26.1341C103.567 26.1341 102.378 25.8571 101.367 25.2933C100.357 24.7394 99.5641 23.9876 98.9795 23.038V35.6204H91.8451V5.48986H98.9795V8.32881C99.5343 7.3792 100.327 6.63731 101.348 6.07348V6.06358ZM105.331 12.5526C104.618 11.8107 103.736 11.4447 102.695 11.4447C101.655 11.4447 100.773 11.8206 100.06 12.5724C99.3461 13.3242 98.9894 14.3529 98.9894 15.6587C98.9894 16.9644 99.3461 18.0327 100.06 18.7845C100.773 19.5363 101.655 19.9122 102.695 19.9122C103.736 19.9122 104.618 19.5264 105.331 18.7647C106.044 18.003 106.401 16.9644 106.401 15.6587C106.401 14.3529 106.044 13.2945 105.331 12.5526Z" fill="#FAAF00" style="fill:#FAAF00;fill:color(display-p3 0.9804 0.6863 0.0000);fill-opacity:1;"/>
<path d="M141.112 25.877H133.977L124.475 11.5536V25.877H117.341V0.247253H124.475L133.977 14.7487V0.247253H141.112V25.877Z" fill="#FAAF00" style="fill:#FAAF00;fill:color(display-p3 0.9804 0.6863 0.0000);fill-opacity:1;"/>
<path d="M149.95 24.868C148.335 24.0173 147.067 22.8105 146.145 21.2377C145.224 19.6649 144.758 17.8053 144.758 15.6785C144.758 13.5518 145.224 11.7317 146.155 10.149C147.087 8.57617 148.365 7.35947 149.98 6.50877C151.595 5.65808 153.418 5.23273 155.46 5.23273C157.501 5.23273 159.324 5.65808 160.939 6.50877C162.554 7.35947 163.833 8.56628 164.764 10.149C165.695 11.7218 166.171 13.5715 166.171 15.6785C166.171 17.7855 165.705 19.6352 164.764 21.2179C163.833 22.8006 162.544 24.0272 160.919 24.868C159.294 25.7187 157.461 26.1441 155.42 26.1441C153.379 26.1441 151.556 25.7187 149.94 24.868H149.95ZM157.927 18.8439C158.591 18.102 158.928 17.0436 158.928 15.6587C158.928 14.2739 158.591 13.2253 157.927 12.4933C157.263 11.7613 156.441 11.4052 155.47 11.4052C154.499 11.4052 153.686 11.7712 153.032 12.4933C152.378 13.2154 152.051 14.2739 152.051 15.6587C152.051 17.0436 152.368 18.1317 153.002 18.8538C153.636 19.5759 154.449 19.9419 155.44 19.9419C156.431 19.9419 157.263 19.5759 157.937 18.834L157.927 18.8439Z" fill="#FAAF00" style="fill:#FAAF00;fill:color(display-p3 0.9804 0.6863 0.0000);fill-opacity:1;"/>
<path d="M200 5.48996L194.798 25.8869H186.782L183.938 13.5221L180.985 25.8869H173.008L167.836 5.48996H174.941L177.239 19.0121L180.262 5.48996H187.911L191.042 19.0517L193.302 5.48996H200Z" fill="#FAAF00" style="fill:#FAAF00;fill:color(display-p3 0.9804 0.6863 0.0000);fill-opacity:1;"/>
</svg>
