<svg width="175" height="32" viewBox="0 0 175 32" fill="none" xmlns="http://www.w3.org/2000/svg">
<path d="M1.38245 5.58934C2.30696 3.86424 3.61165 2.5273 5.30515 1.56124C6.99865 0.59519 8.94271 0.120789 11.146 0.120789C13.9368 0.120789 16.287 0.862579 18.1965 2.35479C20.106 3.84699 21.3329 5.86536 21.8772 8.42712H15.181C14.7749 7.58183 14.2219 6.93491 13.5134 6.49502C12.8049 6.05512 11.9841 5.83085 11.0509 5.83085C9.60802 5.83085 8.4675 6.33976 7.60347 7.36619C6.74808 8.39262 6.31606 9.75545 6.31606 11.4719C6.31606 13.1884 6.74808 14.5857 7.60347 15.6121C8.45886 16.6386 9.60802 17.1475 11.0509 17.1475C11.9841 17.1475 12.8049 16.9232 13.5134 16.4833C14.2219 16.0434 14.7749 15.3965 15.181 14.5512H21.8772C21.3243 17.1043 20.0973 19.1313 18.1965 20.6235C16.2956 22.1158 13.9454 22.8575 11.146 22.8575C8.94271 22.8575 6.99865 22.3745 5.30515 21.4171C3.61165 20.4597 2.30696 19.1141 1.38245 17.389C0.457936 15.6639 0 13.6973 0 11.4805C0 9.26379 0.457936 7.32306 1.38245 5.59797V5.58934Z" fill="#0A2C55" style="fill:#0A2C55;fill:color(display-p3 0.0390 0.1713 0.3330);fill-opacity:1;"/>
<path d="M74.1337 6.77101C75.4125 8.12521 76.0518 9.97106 76.0518 12.3172V22.685H69.8308V13.1452C69.8308 12.1964 69.563 11.4546 69.0359 10.9285C68.5089 10.4023 67.7831 10.1349 66.8758 10.1349C65.9686 10.1349 65.2428 10.4023 64.7158 10.9285C64.1887 11.4546 63.9209 12.1964 63.9209 13.1452V22.685H57.6998V13.1452C57.6998 12.1964 57.4406 11.4546 56.9222 10.9285C56.4038 10.4023 55.6866 10.1349 54.7794 10.1349C53.8722 10.1349 53.1205 10.4023 52.5848 10.9285C52.0577 11.4546 51.7899 12.1964 51.7899 13.1452V22.685H45.5688V4.9079H51.7899V7.25403C52.3428 6.49499 53.0513 5.88258 53.9327 5.43406C54.814 4.97691 55.8249 4.75264 56.9654 4.75264C58.2787 4.75264 59.4452 5.03728 60.4734 5.60657C61.5016 6.17585 62.3051 6.97802 62.9013 8.01307C63.5407 7.0384 64.3701 6.25348 65.407 5.64969C66.4438 5.04591 67.5843 4.74402 68.8372 4.74402C71.0837 4.74402 72.8463 5.41681 74.125 6.77101H74.1337Z" fill="#0A2C55" style="fill:#0A2C55;fill:color(display-p3 0.0390 0.1713 0.3330);fill-opacity:1;"/>
<path d="M88.3731 5.40815C89.263 4.92513 90.3085 4.67499 91.5182 4.67499C92.9352 4.67499 94.2226 5.04588 95.3717 5.78767C96.5295 6.52947 97.4368 7.58177 98.1021 8.96185C98.7674 10.3333 99.1043 11.9463 99.1043 13.7835C99.1043 15.6207 98.7674 17.2337 98.1021 18.6138C97.4368 19.9938 96.5295 21.0634 95.3717 21.7966C94.2139 22.5383 92.9352 22.9092 91.5182 22.9092C90.3085 22.9092 89.2717 22.6677 88.3904 22.1761C87.5091 21.6931 86.8178 21.0375 86.3081 20.2095V31.1811H80.087V4.90788H86.3081V7.38339C86.7919 6.55534 87.4831 5.90843 88.3731 5.41678V5.40815ZM91.8465 11.0665C91.2244 10.4196 90.4554 10.1004 89.5482 10.1004C88.6409 10.1004 87.8719 10.4282 87.2498 11.0837C86.6277 11.7393 86.3167 12.6363 86.3167 13.7749C86.3167 14.9134 86.6277 15.845 87.2498 16.5005C87.8719 17.1561 88.6409 17.4838 89.5482 17.4838C90.4554 17.4838 91.2244 17.1474 91.8465 16.4833C92.4686 15.8191 92.7796 14.9134 92.7796 13.7749C92.7796 12.6363 92.4686 11.7134 91.8465 11.0665Z" fill="#0A2C55" style="fill:#0A2C55;fill:color(display-p3 0.0390 0.1713 0.3330);fill-opacity:1;"/>
<path d="M123.047 22.685H116.826L108.54 10.1953V22.685H102.318V0.336365H108.54L116.826 12.9813V0.336365H123.047V22.685Z" fill="#0A2C55" style="fill:#0A2C55;fill:color(display-p3 0.0390 0.1713 0.3330);fill-opacity:1;"/>
<path d="M130.754 21.8052C129.345 21.0634 128.239 20.0111 127.436 18.6397C126.632 17.2682 126.226 15.6466 126.226 13.7922C126.226 11.9377 126.632 10.3506 127.444 8.97052C128.257 7.59907 129.371 6.53813 130.78 5.79634C132.188 5.05455 133.778 4.68365 135.558 4.68365C137.338 4.68365 138.927 5.05455 140.336 5.79634C141.744 6.53813 142.859 7.59044 143.671 8.97052C144.483 10.342 144.898 11.9549 144.898 13.7922C144.898 15.6294 144.492 17.2423 143.671 18.6224C142.859 20.0025 141.735 21.0721 140.318 21.8052C138.901 22.547 137.303 22.9179 135.523 22.9179C133.743 22.9179 132.153 22.547 130.745 21.8052H130.754ZM137.709 16.5523C138.288 15.9054 138.582 14.9825 138.582 13.7749C138.582 12.5673 138.288 11.653 137.709 11.0148C137.13 10.3765 136.413 10.066 135.566 10.066C134.719 10.066 134.011 10.3851 133.441 11.0148C132.87 11.6444 132.585 12.5673 132.585 13.7749C132.585 14.9825 132.862 15.9313 133.415 16.5609C133.968 17.1906 134.676 17.5097 135.54 17.5097C136.404 17.5097 137.13 17.1906 137.718 16.5437L137.709 16.5523Z" fill="#0A2C55" style="fill:#0A2C55;fill:color(display-p3 0.0390 0.1713 0.3330);fill-opacity:1;"/>
<path d="M174.396 4.9079L169.86 22.6936H162.87L160.39 11.9118L157.815 22.6936H150.86L146.349 4.9079H152.545L154.549 16.6989L157.184 4.9079H163.855L166.585 16.7334L168.555 4.9079H174.396Z" fill="#0A2C55" style="fill:#0A2C55;fill:color(display-p3 0.0390 0.1713 0.3330);fill-opacity:1;"/>
<path d="M41.0156 8.34946C40.9897 8.30633 40.9552 8.26321 40.9206 8.22008C40.8947 8.17695 40.8774 8.13382 40.8515 8.09932C38.5791 4.73539 34.7687 5.8567 31.9347 3.6917C30.7423 2.7774 30.0597 1.49221 29.861 0C28.0206 2.18225 28.2798 5.47718 30.4053 7.38341C31.7446 8.58235 33.5418 8.93599 34.9761 9.96242C35.6414 10.4368 35.7969 10.9802 35.7796 11.5064V17.0871C35.7796 17.4148 35.6846 17.6909 35.4945 17.8979C35.3044 18.1049 35.0366 18.2084 34.6823 18.2084H32.4617C32.1766 18.2084 31.926 18.148 31.7187 18.0272C31.5113 17.9065 31.3558 17.7426 31.2521 17.527C30.941 16.8714 31.1484 16.1296 31.736 15.707C32.1507 15.4051 32.6432 15.2498 33.0838 14.9911C33.8874 14.508 34.4577 13.6369 34.5786 12.7053C34.6996 11.7738 34.3713 10.7905 33.7146 10.1091C33.2394 10.687 32.4877 10.9457 31.7532 11.0579C31.0188 11.17 30.2671 11.1441 29.5327 11.2821C28.2798 11.515 27.1134 12.2137 26.3271 13.2229C25.4285 14.3614 25.1348 15.8277 25.1348 17.251C25.1348 18.286 25.3594 19.2434 25.8173 20.0974C26.2666 20.9599 26.8974 21.6413 27.6923 22.1502C28.4872 22.6591 29.3944 22.9093 30.414 22.9093H36.0907C37.1534 22.9093 38.1125 22.6505 38.9593 22.133C39.806 21.6154 40.4886 20.9254 40.9984 20.0801C41.5081 19.2262 41.7587 18.3205 41.7587 17.3458V10.9544C41.7587 10.0056 41.5081 9.13438 41.0156 8.34946Z" fill="url(#paint0_linear_2751_1331)" style=""/>
<path d="M41.1105 24.022L24.7457 29.0075L25.3938 31L41.7585 26.0145L41.1105 24.022Z" fill="#0A2C55" style="fill:#0A2C55;fill:color(display-p3 0.0390 0.1713 0.3330);fill-opacity:1;"/>
<path d="M25.3938 24.022L41.7585 29.0075L41.1105 31L24.7457 26.0145L25.3938 24.022Z" fill="#0A2C55" style="fill:#0A2C55;fill:color(display-p3 0.0390 0.1713 0.3330);fill-opacity:1;"/>
<defs>
<linearGradient id="paint0_linear_2751_1331" x1="25.7181" y1="22.9093" x2="47.3937" y2="10.9644" gradientUnits="userSpaceOnUse">
<stop stop-color="#FE7800" style="stop-color:#FE7800;stop-color:color(display-p3 0.9961 0.4706 0.0000);stop-opacity:1;"/>
<stop offset="1" stop-color="#FFDC6E" style="stop-color:#FFDC6E;stop-color:color(display-p3 1.0000 0.8627 0.4314);stop-opacity:1;"/>
</linearGradient>
</defs>
</svg>
