<svg width="18" height="31" viewBox="0 0 18 31" fill="none" xmlns="http://www.w3.org/2000/svg">
<path d="M16.27 8.34946C16.2441 8.30633 16.2096 8.26321 16.175 8.22008C16.1491 8.17695 16.1318 8.13382 16.1059 8.09932C13.8335 4.73539 10.0231 5.8567 7.18908 3.6917C5.99672 2.7774 5.31413 1.49221 5.11541 0C3.27502 2.18225 3.53423 5.47718 5.65974 7.38341C6.99899 8.58235 8.79618 8.93599 10.2305 9.96242C10.8958 10.4368 11.0513 10.9802 11.034 11.5064V17.0871C11.034 17.4148 10.939 17.6909 10.7489 17.8979C10.5588 18.1049 10.2909 18.2084 9.9367 18.2084H7.71614C7.43101 18.2084 7.18044 18.148 6.97307 18.0272C6.7657 17.9065 6.61018 17.7426 6.50649 17.527C6.19544 16.8714 6.40281 16.1296 6.99035 15.707C7.40509 15.4051 7.89758 15.2498 8.33824 14.9911C9.14179 14.508 9.71205 13.6369 9.83301 12.7053C9.95398 11.7738 9.62564 10.7905 8.96898 10.1091C8.49376 10.687 7.74206 10.9457 7.00763 11.0579C6.27321 11.17 5.5215 11.1441 4.78708 11.2821C3.53423 11.515 2.36779 12.2137 1.58152 13.2229C0.68293 14.3614 0.38916 15.8277 0.38916 17.251C0.38916 18.286 0.613807 19.2434 1.07174 20.0974C1.52104 20.9599 2.15178 21.6413 2.94669 22.1502C3.7416 22.6591 4.64883 22.9093 5.66839 22.9093H11.3451C12.4078 22.9093 13.3669 22.6505 14.2136 22.133C15.0604 21.6154 15.743 20.9254 16.2528 20.0801C16.7625 19.2262 17.0131 18.3205 17.0131 17.3458V10.9544C17.0131 10.0056 16.7625 9.13438 16.27 8.34946Z" fill="white" style="fill:white;fill-opacity:1;"/>
<path d="M16.3647 24.022L0 29.0075L0.648023 31L17.0128 26.0145L16.3647 24.022Z" fill="white" style="fill:white;fill-opacity:1;"/>
<path d="M0.648023 24.022L17.0128 29.0075L16.3647 31L0 26.0145L0.648023 24.022Z" fill="white" style="fill:white;fill-opacity:1;"/>
</svg>
