<svg width="109" height="11" viewBox="0 0 109 11" fill="none" xmlns="http://www.w3.org/2000/svg">
<path d="M5.00387 8.42775L3.43828 6.1922C3.33919 6.20209 3.2401 6.20209 3.14101 6.20209H1.41687V8.42775H-9.15527e-05V0.79126H3.15092C5.16241 0.79126 6.41093 1.82001 6.41093 3.51151C6.41093 4.66886 5.81639 5.51956 4.78587 5.92512L6.54965 8.43765H5.01378L5.00387 8.42775ZM3.08156 1.98817H1.41687V5.03485H3.08156C4.33007 5.03485 4.97414 4.47102 4.97414 3.50162C4.97414 2.53222 4.33007 1.98817 3.08156 1.98817Z" fill="#E7F1DB" style="fill:#E7F1DB;fill:color(display-p3 0.9059 0.9451 0.8588);fill-opacity:1;"/>
<path d="M7.60019 5.51959C7.60019 3.76873 8.90815 2.54214 10.7017 2.54214C12.4952 2.54214 13.813 3.77862 13.813 5.51959C13.813 7.26055 12.515 8.50692 10.7017 8.50692C8.88834 8.50692 7.60019 7.26055 7.60019 5.51959ZM12.4456 5.51959C12.4456 4.40181 11.7024 3.69949 10.7116 3.69949C9.72068 3.69949 8.98743 4.4117 8.98743 5.51959C8.98743 6.62747 9.73059 7.33968 10.7116 7.33968C11.6925 7.33968 12.4456 6.62747 12.4456 5.51959Z" fill="#E7F1DB" style="fill:#E7F1DB;fill:color(display-p3 0.9059 0.9451 0.8588);fill-opacity:1;"/>
<path d="M15.3586 0.336334H16.7261V8.43775H15.3586V0.336334Z" fill="#E7F1DB" style="fill:#E7F1DB;fill:color(display-p3 0.9059 0.9451 0.8588);fill-opacity:1;"/>
<path d="M18.7375 0.336334H20.105V8.43775H18.7375V0.336334Z" fill="#E7F1DB" style="fill:#E7F1DB;fill:color(display-p3 0.9059 0.9451 0.8588);fill-opacity:1;"/>
<path d="M25.4162 5.1041V0.79126H26.8332V5.04475C26.8332 6.61755 27.5466 7.29019 28.7753 7.29019C30.004 7.29019 30.7076 6.61755 30.7076 5.04475V0.79126H32.1047V5.1041C32.1047 7.32976 30.8463 8.54646 28.7555 8.54646C26.6648 8.54646 25.3964 7.33965 25.3964 5.1041H25.4162Z" fill="#E7F1DB" style="fill:#E7F1DB;fill:color(display-p3 0.9059 0.9451 0.8588);fill-opacity:1;"/>
<path d="M40.3982 5.51959C40.3982 7.32979 39.1397 8.50692 37.4354 8.50692C36.6923 8.50692 36.0383 8.25962 35.5626 7.72546V10.5545H34.1952V2.61139H35.4933V3.37306C35.9491 2.81911 36.6328 2.54214 37.4255 2.54214C39.1298 2.54214 40.3882 3.71927 40.3882 5.51959H40.3982ZM39.0109 5.51959C39.0109 4.40181 38.2678 3.69949 37.2868 3.69949C36.3058 3.69949 35.5527 4.4117 35.5527 5.51959C35.5527 6.62747 36.3058 7.33968 37.2868 7.33968C38.2678 7.33968 39.0109 6.62747 39.0109 5.51959Z" fill="#E7F1DB" style="fill:#E7F1DB;fill:color(display-p3 0.9059 0.9451 0.8588);fill-opacity:1;"/>
<path d="M44.9169 5.39099C44.9169 4.85683 45.3133 4.48094 45.8087 4.48094C46.3042 4.48094 46.7005 4.85683 46.7005 5.39099C46.7005 5.92515 46.3141 6.31093 45.8087 6.31093C45.3034 6.31093 44.9169 5.95482 44.9169 5.39099Z" fill="#E7F1DB" style="fill:#E7F1DB;fill:color(display-p3 0.9059 0.9451 0.8588);fill-opacity:1;"/>
<path d="M54.4888 5.23269L53.2799 6.47906V8.42775H51.8629V0.79126H53.2799V4.70843L57.0651 0.79126H58.6604L55.4499 4.20394L58.8586 8.42775H57.1939L54.4888 5.23269Z" fill="#E7F1DB" style="fill:#E7F1DB;fill:color(display-p3 0.9059 0.9451 0.8588);fill-opacity:1;"/>
<path d="M59.6213 0.821009C59.6213 0.365984 59.9979 -1.52588e-05 60.4933 -1.52588e-05C60.9888 -1.52588e-05 61.3653 0.336308 61.3653 0.781441C61.3653 1.26614 61.0086 1.63214 60.4933 1.63214C59.9781 1.63214 59.6213 1.27603 59.6213 0.811119V0.821009ZM59.8096 2.60154H61.177V8.42783H59.8096V2.60154Z" fill="#E7F1DB" style="fill:#E7F1DB;fill:color(display-p3 0.9059 0.9451 0.8588);fill-opacity:1;"/>
<path d="M62.703 5.51959C62.703 3.76873 64.011 2.54214 65.864 2.54214C67.0035 2.54214 67.9052 3.00706 68.361 3.89733L67.3106 4.51062C66.9638 3.95668 66.4387 3.69949 65.854 3.69949C64.8433 3.69949 64.0804 4.40181 64.0804 5.51959C64.0804 6.63736 64.8433 7.33968 65.854 7.33968C66.4287 7.33968 66.9539 7.09239 67.3106 6.52855L68.361 7.14185C67.9151 8.01233 67.0035 8.50692 65.864 8.50692C64.0209 8.50692 62.703 7.26055 62.703 5.51959Z" fill="#E7F1DB" style="fill:#E7F1DB;fill:color(display-p3 0.9059 0.9451 0.8588);fill-opacity:1;"/>
<path d="M72.0868 5.93511L71.0662 6.89462V8.43775H69.6988V0.336334H71.0662V5.2229L73.9001 2.60157H75.5351L73.0975 5.04485L75.763 8.42786H74.0983L72.0769 5.92522L72.0868 5.93511Z" fill="#E7F1DB" style="fill:#E7F1DB;fill:color(display-p3 0.9059 0.9451 0.8588);fill-opacity:1;"/>
<path d="M87.049 6.36042C87.049 7.66614 86.0185 8.43771 84.0565 8.43771H80.2515V0.801208H83.8385C85.6717 0.801208 86.6625 1.57277 86.6625 2.78947C86.6625 3.58082 86.2662 4.15454 85.6816 4.47108C86.504 4.72827 87.0589 5.38113 87.0589 6.37031L87.049 6.36042ZM81.6685 1.90909V4.01606H83.68C84.661 4.01606 85.2159 3.66984 85.2159 2.96752C85.2159 2.2652 84.661 1.90909 83.68 1.90909H81.6685ZM85.6122 6.21204C85.6122 5.45037 85.0375 5.11405 83.9574 5.11405H81.6586V7.31993H83.9574C85.0276 7.31993 85.6122 6.98361 85.6122 6.22193V6.21204Z" fill="#E7F1DB" style="fill:#E7F1DB;fill:color(display-p3 0.9059 0.9451 0.8588);fill-opacity:1;"/>
<path d="M93.5495 5.01514V8.42782H92.2613V7.71561C91.9344 8.2201 91.3002 8.49707 90.4282 8.49707C89.0905 8.49707 88.2483 7.76507 88.2483 6.74621C88.2483 5.72736 88.9022 5.01514 90.6759 5.01514H92.1821V4.92612C92.1821 4.12488 91.6965 3.65996 90.7255 3.65996C90.0715 3.65996 89.3878 3.87758 88.9518 4.23369L88.4167 3.2445C89.041 2.7598 89.9427 2.5224 90.884 2.5224C92.5685 2.5224 93.5396 3.32364 93.5396 4.99536L93.5495 5.01514ZM92.1821 6.60773V5.93508H90.775C89.8436 5.93508 89.5959 6.2813 89.5959 6.70665C89.5959 7.20124 90.012 7.51778 90.7156 7.51778C91.4191 7.51778 91.9641 7.21113 92.192 6.60773H92.1821Z" fill="#E7F1DB" style="fill:#E7F1DB;fill:color(display-p3 0.9059 0.9451 0.8588);fill-opacity:1;"/>
<path d="M95.0953 5.51959C95.0953 3.76873 96.4032 2.54214 98.2562 2.54214C99.3957 2.54214 100.297 3.00706 100.753 3.89733L99.7029 4.51062C99.3561 3.95668 98.8309 3.69949 98.2463 3.69949C97.2356 3.69949 96.4726 4.40181 96.4726 5.51959C96.4726 6.63736 97.2356 7.33968 98.2463 7.33968C98.821 7.33968 99.3462 7.09239 99.7029 6.52855L100.753 7.14185C100.307 8.01233 99.3957 8.50692 98.2562 8.50692C96.4132 8.50692 95.0953 7.26055 95.0953 5.51959Z" fill="#E7F1DB" style="fill:#E7F1DB;fill:color(display-p3 0.9059 0.9451 0.8588);fill-opacity:1;"/>
<path d="M104.469 5.93511L103.448 6.89462V8.43775H102.081V0.336334H103.448V5.2229L106.282 2.60157H107.917L105.48 5.04485L108.145 8.42786H106.481L104.459 5.92522L104.469 5.93511Z" fill="#E7F1DB" style="fill:#E7F1DB;fill:color(display-p3 0.9059 0.9451 0.8588);fill-opacity:1;"/>
</svg>
