<svg width="24" height="24" viewBox="0 0 24 24" fill="none" xmlns="http://www.w3.org/2000/svg">
<mask id="mask0_2824_2409" style="mask-type:alpha" maskUnits="userSpaceOnUse" x="0" y="0" width="24" height="24">
<rect width="24" height="24" fill="#D9D9D9" style="fill:#D9D9D9;fill:color(display-p3 0.8510 0.8510 0.8510);fill-opacity:1;"/>
</mask>
<g mask="url(#mask0_2824_2409)">
<path d="M21.4 14.25L14.25 21.4C14.05 21.6 13.825 21.75 13.575 21.85C13.325 21.95 13.075 22 12.825 22C12.575 22 12.325 21.95 12.075 21.85C11.825 21.75 11.6 21.6 11.4 21.4L2.575 12.575C2.39167 12.3917 2.25 12.1792 2.15 11.9375C2.05 11.6958 2 11.4417 2 11.175V4C2 3.45 2.19583 2.97917 2.5875 2.5875C2.97917 2.19583 3.45 2 4 2H11.175C11.4417 2 11.7 2.05417 11.95 2.1625C12.2 2.27083 12.4167 2.41667 12.6 2.6L21.4 11.425C21.6 11.625 21.7458 11.85 21.8375 12.1C21.9292 12.35 21.975 12.6 21.975 12.85C21.975 13.1 21.9292 13.3458 21.8375 13.5875C21.7458 13.8292 21.6 14.05 21.4 14.25ZM12.825 20L19.975 12.85L11.15 4H4V11.15L12.825 20ZM6.5 8C6.91667 8 7.27083 7.85417 7.5625 7.5625C7.85417 7.27083 8 6.91667 8 6.5C8 6.08333 7.85417 5.72917 7.5625 5.4375C7.27083 5.14583 6.91667 5 6.5 5C6.08333 5 5.72917 5.14583 5.4375 5.4375C5.14583 5.72917 5 6.08333 5 6.5C5 6.91667 5.14583 7.27083 5.4375 7.5625C5.72917 7.85417 6.08333 8 6.5 8ZM13.7 16.8L16.5 14C16.6833 13.8167 16.8292 13.6 16.9375 13.35C17.0458 13.1 17.1 12.8333 17.1 12.55C17.1 11.9833 16.9 11.5 16.5 11.1C16.1 10.7 15.6167 10.5 15.05 10.5C14.7333 10.5 14.4208 10.5917 14.1125 10.775C13.8042 10.9583 13.4333 11.2667 13 11.7C12.5 11.2333 12.1083 10.9167 11.825 10.75C11.5417 10.5833 11.25 10.5 10.95 10.5C10.3833 10.5 9.9 10.7 9.5 11.1C9.1 11.5 8.9 11.9833 8.9 12.55C8.9 12.8333 8.95417 13.1 9.0625 13.35C9.17083 13.6 9.31667 13.8167 9.5 14L12.3 16.8C12.5 17 12.7333 17.1 13 17.1C13.2667 17.1 13.5 17 13.7 16.8Z" fill="#1C3E6D" style="fill:#1C3E6D;fill:color(display-p3 0.1098 0.2431 0.4275);fill-opacity:1;"/>
</g>
</svg>
