<svg width="32" height="32" viewBox="0 0 32 32" fill="none" xmlns="http://www.w3.org/2000/svg">
<mask id="mask0_2922_900" style="mask-type:alpha" maskUnits="userSpaceOnUse" x="0" y="0" width="32" height="32">
<rect width="32" height="32" fill="#D9D9D9" style="fill:#D9D9D9;fill:color(display-p3 0.8510 0.8510 0.8510);fill-opacity:1;"/>
</mask>
<g mask="url(#mask0_2922_900)">
<path d="M18.6666 17.3334C17.5555 17.3334 16.611 16.9445 15.8333 16.1667C15.0555 15.3889 14.6666 14.4445 14.6666 13.3334C14.6666 12.2223 15.0555 11.2778 15.8333 10.5C16.611 9.72226 17.5555 9.33337 18.6666 9.33337C19.7777 9.33337 20.7221 9.72226 21.4999 10.5C22.2777 11.2778 22.6666 12.2223 22.6666 13.3334C22.6666 14.4445 22.2777 15.3889 21.4999 16.1667C20.7221 16.9445 19.7777 17.3334 18.6666 17.3334ZM9.33325 21.3334C8.59992 21.3334 7.97214 21.0723 7.44992 20.55C6.9277 20.0278 6.66659 19.4 6.66659 18.6667V8.00004C6.66659 7.26671 6.9277 6.63893 7.44992 6.11671C7.97214 5.59449 8.59992 5.33337 9.33325 5.33337H27.9999C28.7333 5.33337 29.361 5.59449 29.8833 6.11671C30.4055 6.63893 30.6666 7.26671 30.6666 8.00004V18.6667C30.6666 19.4 30.4055 20.0278 29.8833 20.55C29.361 21.0723 28.7333 21.3334 27.9999 21.3334H9.33325ZM11.9999 18.6667H25.3333C25.3333 17.9334 25.5944 17.3056 26.1166 16.7834C26.6388 16.2612 27.2666 16 27.9999 16V10.6667C27.2666 10.6667 26.6388 10.4056 26.1166 9.88337C25.5944 9.36115 25.3333 8.73337 25.3333 8.00004H11.9999C11.9999 8.73337 11.7388 9.36115 11.2166 9.88337C10.6944 10.4056 10.0666 10.6667 9.33325 10.6667V16C10.0666 16 10.6944 16.2612 11.2166 16.7834C11.7388 17.3056 11.9999 17.9334 11.9999 18.6667ZM26.6666 26.6667H3.99992C3.26659 26.6667 2.63881 26.4056 2.11659 25.8834C1.59436 25.3612 1.33325 24.7334 1.33325 24V9.33337H3.99992V24H26.6666V26.6667Z" fill="white" style="fill:white;fill-opacity:1;"/>
</g>
</svg>
