<svg width="20" height="20" viewBox="0 0 20 20" fill="none" xmlns="http://www.w3.org/2000/svg">
<path d="M10.8566 1.66666C11.7941 1.66916 12.2699 1.67416 12.6808 1.68582L12.8424 1.69166C13.0291 1.69832 13.2133 1.70666 13.4358 1.71666C14.3224 1.75832 14.9274 1.89832 15.4583 2.10416C16.0083 2.31582 16.4716 2.60249 16.9349 3.06499C17.3589 3.48143 17.6868 3.98538 17.8958 4.54166C18.1016 5.07249 18.2416 5.67749 18.2833 6.56499C18.2933 6.78666 18.3016 6.97082 18.3083 7.15832L18.3133 7.31999C18.3258 7.72999 18.3308 8.20582 18.3324 9.14332L18.3333 9.76499V10.8567C18.3353 11.4645 18.3289 12.0723 18.3141 12.68L18.3091 12.8417C18.3024 13.0292 18.2941 13.2133 18.2841 13.435C18.2424 14.3225 18.1008 14.9267 17.8958 15.4583C17.6868 16.0146 17.3589 16.5185 16.9349 16.935C16.5185 17.3589 16.0146 17.6868 15.4583 17.8958C14.9274 18.1017 14.3224 18.2417 13.4358 18.2833L12.8424 18.3083L12.6808 18.3133C12.2699 18.325 11.7941 18.3308 10.8566 18.3325L10.2349 18.3333H9.14411C8.536 18.3355 7.92788 18.3291 7.31995 18.3142L7.15828 18.3092C6.96045 18.3017 6.76267 18.2931 6.56494 18.2833C5.67828 18.2417 5.07328 18.1017 4.54161 17.8958C3.98564 17.6867 3.48198 17.3588 3.06578 16.935C2.64157 16.5186 2.31337 16.0147 2.10411 15.4583C1.89828 14.9275 1.75828 14.3225 1.71661 13.435L1.69161 12.8417L1.68745 12.68C1.67208 12.0723 1.66514 11.4645 1.66661 10.8567V9.14332C1.66431 8.53549 1.67042 7.92765 1.68495 7.31999L1.69078 7.15832C1.69745 6.97082 1.70578 6.78666 1.71578 6.56499C1.75745 5.67749 1.89744 5.07332 2.10328 4.54166C2.31302 3.98516 2.6418 3.48119 3.06661 3.06499C3.48257 2.64128 3.98593 2.31338 4.54161 2.10416C5.07328 1.89832 5.67744 1.75832 6.56494 1.71666C6.78661 1.70666 6.97161 1.69832 7.15828 1.69166L7.31995 1.68666C7.92761 1.67185 8.53544 1.66546 9.14328 1.66749L10.8566 1.66666ZM9.99994 5.83332C8.89488 5.83332 7.83507 6.27231 7.05367 7.05371C6.27226 7.83511 5.83328 8.89492 5.83328 9.99999C5.83328 11.1051 6.27226 12.1649 7.05367 12.9463C7.83507 13.7277 8.89488 14.1667 9.99994 14.1667C11.105 14.1667 12.1648 13.7277 12.9462 12.9463C13.7276 12.1649 14.1666 11.1051 14.1666 9.99999C14.1666 8.89492 13.7276 7.83511 12.9462 7.05371C12.1648 6.27231 11.105 5.83332 9.99994 5.83332ZM9.99994 7.49999C10.3282 7.49994 10.6533 7.56455 10.9567 7.69013C11.26 7.81572 11.5356 7.99982 11.7678 8.23193C12 8.46404 12.1842 8.7396 12.3099 9.0429C12.4356 9.34619 12.5003 9.67127 12.5004 9.99957C12.5004 10.3279 12.4358 10.653 12.3102 10.9563C12.1846 11.2596 12.0005 11.5353 11.7684 11.7675C11.5363 11.9996 11.2607 12.1838 10.9575 12.3095C10.6542 12.4352 10.3291 12.4999 10.0008 12.5C9.33774 12.5 8.70185 12.2366 8.23301 11.7678C7.76417 11.2989 7.50078 10.663 7.50078 9.99999C7.50078 9.33695 7.76417 8.70106 8.23301 8.23222C8.70185 7.76338 9.33774 7.49999 10.0008 7.49999M14.3758 4.58332C14.0995 4.58332 13.8346 4.69307 13.6392 4.88842C13.4439 5.08377 13.3341 5.34872 13.3341 5.62499C13.3341 5.90126 13.4439 6.16621 13.6392 6.36156C13.8346 6.55691 14.0995 6.66666 14.3758 6.66666C14.652 6.66666 14.917 6.55691 15.1123 6.36156C15.3077 6.16621 15.4174 5.90126 15.4174 5.62499C15.4174 5.34872 15.3077 5.08377 15.1123 4.88842C14.917 4.69307 14.652 4.58332 14.3758 4.58332Z" fill="white" style="fill:white;fill-opacity:1;"/>
</svg>
