<svg width="24" height="24" viewBox="0 0 24 24" fill="none" xmlns="http://www.w3.org/2000/svg">
<path fill-rule="evenodd" clip-rule="evenodd" d="M12 16C13.8565 16 15.637 15.2625 16.9497 13.9497C18.2625 12.637 19 10.8565 19 9C19 7.14348 18.2625 5.36301 16.9497 4.05025C15.637 2.7375 13.8565 2 12 2C10.1435 2 8.36301 2.7375 7.05025 4.05025C5.7375 5.36301 5 7.14348 5 9C5 10.8565 5.7375 12.637 7.05025 13.9497C8.36301 15.2625 10.1435 16 12 16ZM12 6C11.716 6 11.526 6.34 11.146 7.023L11.048 7.199C10.94 7.393 10.886 7.489 10.802 7.553C10.717 7.617 10.612 7.641 10.402 7.688L10.212 7.732C9.474 7.899 9.105 7.982 9.017 8.264C8.929 8.546 9.181 8.841 9.684 9.429L9.814 9.581C9.957 9.748 10.029 9.831 10.061 9.935C10.093 10.039 10.082 10.15 10.061 10.373L10.041 10.576C9.965 11.361 9.927 11.754 10.156 11.928C10.386 12.102 10.732 11.943 11.423 11.625L11.601 11.543C11.798 11.453 11.896 11.408 12 11.408C12.104 11.408 12.202 11.453 12.399 11.543L12.577 11.625C13.268 11.944 13.614 12.102 13.844 11.928C14.074 11.754 14.035 11.361 13.959 10.576L13.939 10.373C13.918 10.15 13.907 10.039 13.939 9.935C13.971 9.831 14.043 9.748 14.186 9.581L14.316 9.429C14.819 8.841 15.071 8.547 14.983 8.264C14.895 7.982 14.526 7.899 13.788 7.732L13.598 7.688C13.388 7.641 13.283 7.618 13.198 7.553C13.114 7.489 13.06 7.393 12.952 7.199L12.854 7.023C12.474 6.34 12.284 6 12 6Z" fill="#18A555" style="fill:#18A555;fill:color(display-p3 0.0941 0.6471 0.3333);fill-opacity:1;"/>
<path opacity="0.5" d="M6.71406 17.323L7.35106 15L8.00006 13H16.0001L16.6491 15L17.2861 17.323C17.9141 19.615 18.2281 20.761 17.8091 21.388C17.6621 21.608 17.4651 21.784 17.2361 21.901C16.5841 22.233 15.5761 21.708 13.5611 20.658C12.8911 20.308 12.5551 20.134 12.1991 20.096C12.0667 20.0828 11.9334 20.0828 11.8011 20.096C11.4451 20.134 11.1101 20.309 10.4391 20.658C8.42406 21.708 7.41606 22.233 6.76406 21.901C6.53172 21.7827 6.33423 21.6059 6.19106 21.388C5.77106 20.761 6.08606 19.615 6.71406 17.323Z" fill="#18A555" style="fill:#18A555;fill:color(display-p3 0.0941 0.6471 0.3333);fill-opacity:1;"/>
</svg>
