<svg xmlns="http://www.w3.org/2000/svg" viewBox="0 0 623 350" fill="none">
  <defs>
    <linearGradient id="bodyGrad" x1="0%" y1="0%" x2="100%" y2="100%">
      <stop offset="0%" style="stop-color:#1c3e6d;stop-opacity:1" />
      <stop offset="100%" style="stop-color:#0a2c55;stop-opacity:1" />
    </linearGradient>
    <linearGradient id="windowGrad" x1="0%" y1="0%" x2="0%" y2="100%">
      <stop offset="0%" style="stop-color:#87ceeb;stop-opacity:1" />
      <stop offset="100%" style="stop-color:#4a90c2;stop-opacity:1" />
    </linearGradient>
  </defs>
  <g transform="translate(30, 50)">
    <path d="M50 200 L50 120 Q50 100 70 100 L200 100 L250 60 Q260 50 280 50 L450 50 Q480 50 490 80 L510 120 L540 120 Q560 120 560 140 L560 200" fill="url(#bodyGrad)" stroke="#0a2c55" stroke-width="3"/>
    <rect x="80" y="70" width="100" height="60" rx="5" fill="url(#windowGrad)" stroke="#1c3e6d" stroke-width="2"/>
    <rect x="200" y="60" width="120" height="70" rx="5" fill="url(#windowGrad)" stroke="#1c3e6d" stroke-width="2"/>
    <rect x="340" y="60" width="80" height="70" rx="5" fill="url(#windowGrad)" stroke="#1c3e6d" stroke-width="2"/>
    <rect x="50" y="200" width="510" height="30" rx="5" fill="#1c3e6d"/>
    <circle cx="130" cy="230" r="45" fill="#333" stroke="#555" stroke-width="8"/>
    <circle cx="130" cy="230" r="20" fill="#888"/>
    <circle cx="130" cy="230" r="8" fill="#444"/>
    <circle cx="480" cy="230" r="45" fill="#333" stroke="#555" stroke-width="8"/>
    <circle cx="480" cy="230" r="20" fill="#888"/>
    <circle cx="480" cy="230" r="8" fill="#444"/>
    <rect x="430" y="80" width="80" height="25" rx="3" fill="#fe6d00"/>
    <rect x="55" y="150" width="15" height="40" rx="2" fill="#fe6d00"/>
    <rect x="540" y="150" width="15" height="40" rx="2" fill="#ff3333"/>
    <path d="M250 120 L290 120 L290 150 L250 150 Z" fill="#333"/>
    <circle cx="270" cy="135" r="5" fill="#fe6d00"/>
  </g>
</svg>