<svg width="20" height="27" viewBox="0 0 20 27" fill="none" xmlns="http://www.w3.org/2000/svg">
<path d="M18.2124 9.5753C18.1827 9.52584 18.1431 9.47638 18.1034 9.42692C18.0737 9.37746 18.0539 9.328 18.0242 9.28843C15.4182 5.43062 11.0484 6.71656 7.79825 4.23371C6.43084 3.18517 5.64804 1.71129 5.42014 0C3.30955 2.50263 3.60682 6.28131 6.04439 8.46741C7.58026 9.84238 9.6413 10.2479 11.2862 11.4251C12.0491 11.9691 12.2275 12.5923 12.2077 13.1957V19.5957C12.2077 19.9716 12.0987 20.2882 11.8807 20.5256C11.6627 20.763 11.3555 20.8817 10.9493 20.8817H8.40269C8.0757 20.8817 7.78835 20.8124 7.55053 20.6739C7.31272 20.5354 7.13436 20.3475 7.01546 20.1002C6.65874 19.3484 6.89655 18.4977 7.57035 18.013C8.04598 17.6668 8.61078 17.4888 9.11613 17.192C10.0377 16.6381 10.6916 15.639 10.8304 14.5707C10.9691 13.5024 10.5925 12.3747 9.83948 11.5932C9.29449 12.256 8.43242 12.5527 7.59017 12.6813C6.74792 12.8099 5.88585 12.7803 5.0436 12.9385C3.60682 13.2056 2.26912 14.0068 1.36742 15.1642C0.3369 16.4699 0 18.1515 0 19.7837C0 20.9707 0.257629 22.0687 0.782797 23.048C1.29806 24.0372 2.0214 24.8186 2.93302 25.4022C3.84463 25.9859 4.88506 26.2727 6.0543 26.2727H12.5644C13.7832 26.2727 14.8831 25.976 15.8541 25.3825C16.8252 24.7889 17.608 23.9976 18.1926 23.0282C18.7773 22.0489 19.0646 21.0103 19.0646 19.8925V12.5626C19.0646 11.4745 18.7773 10.4755 18.2124 9.5753Z" fill="url(#paint0_linear_2832_3009)" style=""/>
<defs>
<linearGradient id="paint0_linear_2832_3009" x1="0.668933" y1="26.2727" x2="25.5269" y2="12.5742" gradientUnits="userSpaceOnUse">
<stop stop-color="#FE7800" style="stop-color:#FE7800;stop-color:color(display-p3 0.9961 0.4706 0.0000);stop-opacity:1;"/>
<stop offset="1" stop-color="#FFDC6E" style="stop-color:#FFDC6E;stop-color:color(display-p3 1.0000 0.8627 0.4314);stop-opacity:1;"/>
</linearGradient>
</defs>
</svg>
